<?xml version="1.0" encoding="utf-8"?>
<!-- Generator: Adobe Illustrator 28.1.0, SVG Export Plug-In . SVG Version: 6.00 Build 0)  -->
<svg version="1.1" id="Layer_1" xmlns="http://www.w3.org/2000/svg" xmlns:xlink="http://www.w3.org/1999/xlink" x="0px" y="0px"
	 viewBox="0 0 1566.97 1916.9" style="enable-background:new 0 0 1566.97 1916.9;" xml:space="preserve">
<style type="text/css">
	.st0{fill:#F3E4EB;}
	.st1{fill:url(#SVGID_1_);}
	.st2{fill:url(#SVGID_00000005233789322474643530000007582285904337775271_);}
	.st3{fill:#DDEBEF;}
	.st4{fill:#73CBCB;}
	.st5{fill:url(#SVGID_00000149378664879961080270000007464198688445997972_);}
	.st6{fill:#FFF5EC;}
	.st7{fill:#F79D94;}
	.st8{fill:url(#SVGID_00000045588036514429910160000013039959806806291089_);}
	.st9{fill:#FAF3ED;}
	.st10{fill:#FFFFFF;}
	.st11{fill:url(#SVGID_00000060028128543889731080000006958518808403489153_);}
	.st12{fill:#EFF6E2;}
	.st13{fill:url(#SVGID_00000005258384513082113630000015079972789109456290_);}
	.st14{fill:url(#SVGID_00000014616512642572807680000007885895085525341340_);}
	.st15{fill:url(#SVGID_00000077311180876768656390000008574489833027101359_);}
	.st16{fill:url(#SVGID_00000028319030442232541640000011831380571344731054_);}
	.st17{fill:url(#SVGID_00000138565255452848447510000009080761654127276733_);}
	.st18{fill:url(#SVGID_00000164491650732385244050000003423312939546923673_);}
	.st19{fill:url(#SVGID_00000173856559352950757610000011967405445009793155_);}
	.st20{fill:url(#SVGID_00000119797486005945923580000001816705049967501486_);}
	.st21{fill:url(#SVGID_00000044178743184661977940000006602391092865678003_);}
	.st22{fill:#E3F2E8;}
	.st23{fill:#FAF9DE;}
	.st24{fill:url(#SVGID_00000137105311405822391310000006115126716530876569_);}
	.st25{fill:url(#SVGID_00000153663361980461149360000004928599231922258587_);}
	.st26{fill:url(#SVGID_00000121250322834953053540000009192376961005833632_);}
	.st27{fill:url(#SVGID_00000154391537288251783250000018239861854006540957_);}
	.st28{fill:url(#SVGID_00000022533663628682136430000000650676885602396092_);}
	.st29{fill:url(#SVGID_00000111167512995221930190000000630895809133901963_);}
	.st30{fill:url(#SVGID_00000076587427198126765030000017531750959066676392_);}
	.st31{fill:url(#SVGID_00000048461661585503808970000002845880936111062923_);}
	.st32{fill:none;stroke:#231F20;stroke-width:2;}
	.st33{fill:none;stroke:#FFFFFF;stroke-width:20;}
	.st34{fill:#FFFAEE;}
	.st35{fill:none;stroke:#231F20;stroke-width:10;}
	.st36{fill:none;stroke:#231F20;stroke-width:2;stroke-linejoin:round;}
	.st37{fill:none;stroke:#FFFFFF;stroke-width:20;stroke-linecap:round;stroke-linejoin:round;}
	.st38{fill:none;stroke:#231F20;stroke-width:10;stroke-linejoin:round;}
</style>
<g>
	<path class="st0" d="M431.62,1306.91c0,0-198.91,251.72-200.23,253.16c-2.37,2.59-8.71,19.64,13.35,0
		c19.17-17.07,189.93-249.65,189.93-249.65L431.62,1306.91z"/>
	<linearGradient id="SVGID_1_" gradientUnits="userSpaceOnUse" x1="351.2119" y1="1304.3784" x2="275.6024" y2="1480.3774">
		<stop  offset="0.18" style="stop-color:#A865A0"/>
		<stop  offset="0.605" style="stop-color:#E1A8A3"/>
		<stop  offset="0.7516" style="stop-color:#FCC4A1"/>
	</linearGradient>
	<path class="st1" d="M321.72,1313.54c3.3,0,31.31,17.3,43.67,17.3c-52.74,87.35-135.87,225.39-135.87,225.39L321.72,1313.54z"/>
	
		<linearGradient id="SVGID_00000055696631703649540180000015276580925882848188_" gradientUnits="userSpaceOnUse" x1="636.5758" y1="1573.3367" x2="683.5244" y2="1346.9021">
		<stop  offset="0.081" style="stop-color:#F8A284"/>
		<stop  offset="0.2294" style="stop-color:#E4A68C"/>
		<stop  offset="0.5391" style="stop-color:#B4B2A3"/>
		<stop  offset="0.981" style="stop-color:#3DBCC7"/>
		<stop  offset="1" style="stop-color:#30BCC9"/>
	</linearGradient>
	<polygon style="fill:url(#SVGID_00000055696631703649540180000015276580925882848188_);" points="541.06,1397.26 728.41,1292.92 
		731.96,1750.01 541.06,1406.15 	"/>
	<polygon class="st3" points="520.3,1454.82 518.9,1550.64 526.35,1554.13 526.35,1461.1 	"/>
	<polygon class="st4" points="567.28,1515.52 526.35,1554.13 526.35,1461.1 	"/>
	<path class="st4" d="M805.88,1546.91c-26.26,73.84-48.67,145.51-66.49,214.6c0,0-5.07,19.63,4.75,3.17
		c11.4-22.8,61.75-119.99,61.75-119.99V1546.91z"/>
	
		<linearGradient id="SVGID_00000021091121558861605640000002442049836350071179_" gradientUnits="userSpaceOnUse" x1="873.8792" y1="1412.3466" x2="858.0099" y2="1522.017">
		<stop  offset="0" style="stop-color:#704C8E"/>
		<stop  offset="0.1965" style="stop-color:#6E5A97"/>
		<stop  offset="0.6033" style="stop-color:#6779B1"/>
		<stop  offset="1" style="stop-color:#599CD5"/>
	</linearGradient>
	<polygon style="fill:url(#SVGID_00000021091121558861605640000002442049836350071179_);" points="824.55,1335.05 824.23,1600.36 
		935.04,1407.87 935.04,1400.27 	"/>
	<polygon class="st6" points="953.72,1456.94 907.82,1512.98 948.66,1551.61 953.72,1551.61 	"/>
	<path class="st7" d="M948.66,1462.64l-40.84,50.34c0,0,37.68,16.78,40.84,22.48C948.34,1516.46,948.66,1462.64,948.66,1462.64z"/>
	
		<linearGradient id="SVGID_00000090982354982374951700000014249700449591933329_" gradientUnits="userSpaceOnUse" x1="1181.7115" y1="1345.9263" x2="1181.7115" y2="1588.5049">
		<stop  offset="0" style="stop-color:#1C4763"/>
		<stop  offset="0.0766" style="stop-color:#20536D"/>
		<stop  offset="0.2366" style="stop-color:#2B768C"/>
		<stop  offset="0.4648" style="stop-color:#3ABBCC"/>
		<stop  offset="0.4723" style="stop-color:#3ABFCF"/>
		<stop  offset="0.5809" style="stop-color:#55C4D1"/>
		<stop  offset="0.7209" style="stop-color:#66C9D3"/>
		<stop  offset="0.8606" style="stop-color:#6BCAD4"/>
	</linearGradient>
	<polygon style="fill:url(#SVGID_00000090982354982374951700000014249700449591933329_);" points="1113.18,1331.32 1154.86,1314.89 
		1250.24,1560.95 	"/>
	<path class="st9" d="M1031.01,1306.46h11.95c0,0,201.93,254.51,203.42,256.5s-1.66,10.6-7.95,3.48
		C1232.14,1559.32,1031.01,1306.46,1031.01,1306.46z"/>
	<polygon class="st10" points="943.29,1324.07 939.2,1327.85 1133.51,1469.33 1136.66,1462.64 	"/>
	<path class="st10" d="M337.62,1466.25l5.35,5.35c66.72-52.34,131.95-100.58,194.77-142.23l-3.68-5.02
		C472.45,1363.8,406.02,1413.02,337.62,1466.25z"/>
	<g>
		
			<linearGradient id="SVGID_00000006678755326787365480000006885452500937141141_" gradientUnits="userSpaceOnUse" x1="1175.8118" y1="706.7755" x2="1255.2826" y2="493.7676">
			<stop  offset="0.2666" style="stop-color:#F2F3F4"/>
			<stop  offset="0.9257" style="stop-color:#64C9D9"/>
			<stop  offset="1" style="stop-color:#4DC5D6"/>
		</linearGradient>
		<path style="fill:url(#SVGID_00000006678755326787365480000006885452500937141141_);" d="M1246.35,445.9l-33.17,294.53
			l-70.15-34.49c0,0-11.45-21.32,2.17-50.18C1158.83,626.88,1246.35,445.9,1246.35,445.9z"/>
		<path class="st12" d="M337.55,697.61c0,0,4.08-13.75,0-25.62c-4.42-12.88-106.57-220.11-107.29-218.52L337.55,697.61z"/>
		
			<linearGradient id="SVGID_00000142173007392805723700000003978406694275119254_" gradientUnits="userSpaceOnUse" x1="241.7999" y1="479.8883" x2="305.6035" y2="746.3591">
			<stop  offset="0.238" style="stop-color:#FBFAE6"/>
			<stop  offset="0.304" style="stop-color:#F0F5E4"/>
			<stop  offset="0.4175" style="stop-color:#D5EBDE"/>
			<stop  offset="0.5637" style="stop-color:#A8DBD4"/>
			<stop  offset="0.6601" style="stop-color:#84D0CE"/>
		</linearGradient>
		<polygon style="fill:url(#SVGID_00000142173007392805723700000003978406694275119254_);" points="229.35,451.44 259.87,750.14 
			340.93,709.11 340.93,699.11 		"/>
		
			<linearGradient id="SVGID_00000080889558154464258280000009382720857342436224_" gradientUnits="userSpaceOnUse" x1="286.1151" y1="417.7339" x2="602.6498" y2="858.1074">
			<stop  offset="0" style="stop-color:#63C8CD"/>
			<stop  offset="0.2916" style="stop-color:#60C7CD"/>
			<stop  offset="0.4598" style="stop-color:#53C5CD"/>
			<stop  offset="0.5212" style="stop-color:#4AC3CD"/>
			<stop  offset="0.5331" style="stop-color:#4ABAC8"/>
			<stop  offset="0.5914" style="stop-color:#409CB7"/>
			<stop  offset="0.6519" style="stop-color:#3A84A9"/>
			<stop  offset="0.714" style="stop-color:#36739E"/>
			<stop  offset="0.778" style="stop-color:#336697"/>
			<stop  offset="0.8448" style="stop-color:#305D92"/>
			<stop  offset="0.9161" style="stop-color:#2F588F"/>
			<stop  offset="1" style="stop-color:#2F568E"/>
		</linearGradient>
		<path style="fill:url(#SVGID_00000080889558154464258280000009382720857342436224_);" d="M543.55,847.69l-1.78-214.45
			c0,0-281.31-166.35-298.95-178.49c-17.63-12.15-13.2-0.28-7.62,6.9c102.97,132.65,225.51,326.88,272.48,404.49
			C507.68,866.15,512.45,838.64,543.55,847.69z"/>
		
			<linearGradient id="SVGID_00000039828016799386729740000006661672931217487037_" gradientUnits="userSpaceOnUse" x1="529.0834" y1="470.7509" x2="537.3281" y2="576.4815">
			<stop  offset="0" style="stop-color:#E7F1D8"/>
			<stop  offset="0.1364" style="stop-color:#E2ECD5"/>
			<stop  offset="0.2872" style="stop-color:#D5E1D0"/>
			<stop  offset="0.4442" style="stop-color:#BFD0C8"/>
			<stop  offset="0.5539" style="stop-color:#ADC1C1"/>
			<stop  offset="1" style="stop-color:#2B618E"/>
		</linearGradient>
		<path style="fill:url(#SVGID_00000039828016799386729740000006661672931217487037_);" d="M525.41,456.18L514.77,567.2
			c16.72,11.28,32.45,20.75,45.67,25.62C547.8,537.36,537.22,486.23,525.41,456.18z"/>
		
			<linearGradient id="SVGID_00000093870017400709364050000000464496283633157301_" gradientUnits="userSpaceOnUse" x1="545.8762" y1="451.3516" x2="668.3127" y2="701.8217">
			<stop  offset="0.0397" style="stop-color:#FEEADD"/>
			<stop  offset="0.1834" style="stop-color:#E7F1D8"/>
			<stop  offset="0.184" style="stop-color:#E6F0D7"/>
			<stop  offset="0.229" style="stop-color:#D7BABE"/>
			<stop  offset="0.2666" style="stop-color:#CD95AC"/>
			<stop  offset="0.2951" style="stop-color:#C880A2"/>
			<stop  offset="0.3111" style="stop-color:#C6789E"/>
			<stop  offset="0.329" style="stop-color:#B36F9B"/>
			<stop  offset="0.3628" style="stop-color:#946296"/>
			<stop  offset="0.399" style="stop-color:#7C5992"/>
			<stop  offset="0.4375" style="stop-color:#68528F"/>
			<stop  offset="0.4792" style="stop-color:#574D8C"/>
			<stop  offset="0.5255" style="stop-color:#4A498B"/>
			<stop  offset="0.5801" style="stop-color:#42488A"/>
			<stop  offset="0.664" style="stop-color:#40478A"/>
			<stop  offset="0.6927" style="stop-color:#3C427B"/>
			<stop  offset="0.7288" style="stop-color:#393D6F"/>
			<stop  offset="0.7735" style="stop-color:#363967"/>
			<stop  offset="0.8354" style="stop-color:#343762"/>
			<stop  offset="1" style="stop-color:#343761"/>
		</linearGradient>
		<path style="fill:url(#SVGID_00000093870017400709364050000000464496283633157301_);" d="M525.41,456.18
			c43.06,88.5,87.7,170.51,135.44,251.06c-12.18-46.26-23.71-91.38-24.74-118.02C595.42,533.98,549.23,495.22,525.41,456.18z"/>
		
			<linearGradient id="SVGID_00000136401577581354026000000014162302651083819930_" gradientUnits="userSpaceOnUse" x1="560.8302" y1="714.296" x2="668.0049" y2="875.3823">
			<stop  offset="0" style="stop-color:#FCBF8F"/>
			<stop  offset="0.2723" style="stop-color:#F384A6"/>
			<stop  offset="0.2778" style="stop-color:#EE82A5"/>
			<stop  offset="0.3683" style="stop-color:#C06F98"/>
			<stop  offset="0.4602" style="stop-color:#9D6290"/>
			<stop  offset="0.5517" style="stop-color:#83588A"/>
			<stop  offset="0.643" style="stop-color:#6E5285"/>
			<stop  offset="0.7338" style="stop-color:#5F4E82"/>
			<stop  offset="0.824" style="stop-color:#554B81"/>
			<stop  offset="0.9132" style="stop-color:#524A80"/>
		</linearGradient>
		<path style="fill:url(#SVGID_00000136401577581354026000000014162302651083819930_);" d="M583.87,660.04
			c-10.55,48.82-18.56,96.59-23.16,142.97l123.43,70.92c0,0,7.55-4.36,2.23-23.53c-3.54-12.74-25.36-55.64-25.36-55.64l-6.85,4.53
			L583.87,660.04z"/>
		
			<linearGradient id="SVGID_00000173846924648747956110000000787739088407316641_" gradientUnits="userSpaceOnUse" x1="718.2618" y1="822.7962" x2="698.2631" y2="247.1228">
			<stop  offset="0" style="stop-color:#3C2C58"/>
			<stop  offset="0.4231" style="stop-color:#8F6B9F"/>
			<stop  offset="0.5418" style="stop-color:#9794B0"/>
			<stop  offset="0.6711" style="stop-color:#A2C3C2"/>
			<stop  offset="0.7194" style="stop-color:#BCD1CC"/>
			<stop  offset="0.7803" style="stop-color:#D6E0D6"/>
			<stop  offset="0.8418" style="stop-color:#E9ECDD"/>
			<stop  offset="0.9036" style="stop-color:#F5F4E2"/>
			<stop  offset="0.9663" style="stop-color:#FAF7E4"/>
		</linearGradient>
		<path style="fill:url(#SVGID_00000173846924648747956110000000787739088407316641_);" d="M738.29,216.07
			c0,0-44.44,144.75-46.48,151.25c-30.8,97.82-27.95,117.71-24.01,137.15c5.36,26.44,20.47,256.93,52.87,340.7
			c6.13,1.28,16.37,0,16.37,0l1.26-129.49c0,0-11.75-7.77-8.94-52.1C728.59,654.63,738.29,216.07,738.29,216.07z"/>
		
			<linearGradient id="SVGID_00000012461623854543007280000015668962890251988651_" gradientUnits="userSpaceOnUse" x1="782.3452" y1="831.1283" x2="746.1131" y2="186.1977">
			<stop  offset="0" style="stop-color:#181A37"/>
			<stop  offset="0.124" style="stop-color:#191C39"/>
			<stop  offset="0.2362" style="stop-color:#1C223F"/>
			<stop  offset="0.344" style="stop-color:#212C4B"/>
			<stop  offset="0.4488" style="stop-color:#263A5C"/>
			<stop  offset="0.5518" style="stop-color:#2B4D74"/>
			<stop  offset="0.6519" style="stop-color:#2B6394"/>
			<stop  offset="0.6711" style="stop-color:#2A689B"/>
			<stop  offset="0.6784" style="stop-color:#2C6A9D"/>
			<stop  offset="0.7524" style="stop-color:#3D83AC"/>
			<stop  offset="0.8237" style="stop-color:#4A9ABA"/>
			<stop  offset="0.8905" style="stop-color:#54ABC4"/>
			<stop  offset="0.9511" style="stop-color:#5AB6CA"/>
			<stop  offset="1" style="stop-color:#5CB9CC"/>
		</linearGradient>
		<path style="fill:url(#SVGID_00000012461623854543007280000015668962890251988651_);" d="M738.29,216.07l-1.26,629.09l4.58,0.57
			c0,0,58.23-327.22,59.76-333.35c1.53-6.13,14.3-51.59-1.53-90.41C798.06,415.84,748.25,225.45,738.29,216.07z"/>
		
			<linearGradient id="SVGID_00000023967950594840624580000010593751861862659513_" gradientUnits="userSpaceOnUse" x1="826.9087" y1="658.0244" x2="942.4232" y2="447.2852">
			<stop  offset="0" style="stop-color:#281B3B"/>
			<stop  offset="0.1084" style="stop-color:#2A1D3C"/>
			<stop  offset="0.1734" style="stop-color:#312141"/>
			<stop  offset="0.2271" style="stop-color:#3C2949"/>
			<stop  offset="0.2745" style="stop-color:#4C3455"/>
			<stop  offset="0.3178" style="stop-color:#634466"/>
			<stop  offset="0.3575" style="stop-color:#80577B"/>
			<stop  offset="0.389" style="stop-color:#A16C92"/>
			<stop  offset="0.4853" style="stop-color:#A26E93"/>
			<stop  offset="0.545" style="stop-color:#A37395"/>
			<stop  offset="0.5784" style="stop-color:#A57998"/>
			<stop  offset="0.5997" style="stop-color:#A9849F"/>
			<stop  offset="0.6598" style="stop-color:#B4A4B2"/>
			<stop  offset="0.7177" style="stop-color:#BDBFC2"/>
			<stop  offset="0.7719" style="stop-color:#C5D2CE"/>
			<stop  offset="0.8211" style="stop-color:#CADFD5"/>
			<stop  offset="0.8607" style="stop-color:#CBE3D8"/>
		</linearGradient>
		<path style="fill:url(#SVGID_00000023967950594840624580000010593751861862659513_);" d="M842.44,587.74
			c0,0-17.76,88.32-18.23,117.13c8.93-15.54,118.55-232.66,128.3-251.97c0.09-0.18-0.16-0.33-0.28-0.17L842.44,587.74z"/>
		
			<linearGradient id="SVGID_00000062157169985858679180000016724520156593371557_" gradientUnits="userSpaceOnUse" x1="939.3434" y1="585.0176" x2="958.7981" y2="441.2372">
			<stop  offset="5.291006e-03" style="stop-color:#196280"/>
			<stop  offset="0.0875" style="stop-color:#1C6381"/>
			<stop  offset="0.1419" style="stop-color:#236885"/>
			<stop  offset="0.1882" style="stop-color:#2F718C"/>
			<stop  offset="0.23" style="stop-color:#3D7F97"/>
			<stop  offset="0.2688" style="stop-color:#4E93A7"/>
			<stop  offset="0.3048" style="stop-color:#64ADBB"/>
			<stop  offset="0.3338" style="stop-color:#7ACED4"/>
			<stop  offset="0.4317" style="stop-color:#7DCFD4"/>
			<stop  offset="0.4924" style="stop-color:#87D1D5"/>
			<stop  offset="0.5429" style="stop-color:#97D6D7"/>
			<stop  offset="0.5876" style="stop-color:#ADDDD9"/>
			<stop  offset="0.6285" style="stop-color:#C8E7DC"/>
			<stop  offset="0.6291" style="stop-color:#C9E7DC"/>
		</linearGradient>
		<polygon style="fill:url(#SVGID_00000062157169985858679180000016724520156593371557_);" points="952.49,453.13 917.09,594.96 
			962.48,568.55 		"/>
		<path class="st22" d="M885.91,650.66l-81.24,167.45c0,0,2.48,20.16,10.23,2.79c7.75-17.37,74.83-159.97,74.83-159.97
			S893.67,650.35,885.91,650.66z"/>
		<path class="st23" d="M976.1,613.05c0,0,265.5-165.8,267.05-166.73c1.55-0.93,9.92-3.1-5.58,11.16
			c-15.5,14.26-255.2,165.74-255.2,165.74L976.1,613.05z"/>
		
			<linearGradient id="SVGID_00000133522692652969313250000010810186270689408133_" gradientUnits="userSpaceOnUse" x1="422.018" y1="1528.1255" x2="422.018" y2="1267.9668">
			<stop  offset="0.0327" style="stop-color:#EE749B"/>
			<stop  offset="0.2129" style="stop-color:#AC6BA2"/>
			<stop  offset="0.424" style="stop-color:#5662AD"/>
			<stop  offset="0.4855" style="stop-color:#5661A9"/>
			<stop  offset="0.5246" style="stop-color:#575DA0"/>
			<stop  offset="0.5574" style="stop-color:#575794"/>
			<stop  offset="0.5868" style="stop-color:#564F84"/>
			<stop  offset="0.6137" style="stop-color:#544471"/>
			<stop  offset="0.6182" style="stop-color:#54426E"/>
			<stop  offset="0.6615" style="stop-color:#51406B"/>
			<stop  offset="0.7193" style="stop-color:#493961"/>
			<stop  offset="0.7853" style="stop-color:#3B2D52"/>
			<stop  offset="0.8568" style="stop-color:#291C3E"/>
			<stop  offset="0.8946" style="stop-color:#1E1132"/>
		</linearGradient>
		<path style="fill:url(#SVGID_00000133522692652969313250000010810186270689408133_);" d="M233.48,1568.66
			c83.51-97.55,155.31-190.71,210.14-276.06l166.94-25.98l-79.79,129.65L233.48,1568.66z"/>
		
			<linearGradient id="SVGID_00000142863108342701599440000000643237308493528213_" gradientUnits="userSpaceOnUse" x1="884.7258" y1="1252.585" x2="1159.1064" y2="1489.9672">
			<stop  offset="0" style="stop-color:#1C4763"/>
			<stop  offset="0.1606" style="stop-color:#25546D"/>
			<stop  offset="0.496" style="stop-color:#3D778C"/>
			<stop  offset="0.9745" style="stop-color:#66C2CD"/>
			<stop  offset="1" style="stop-color:#68CAD4"/>
		</linearGradient>
		<path style="fill:url(#SVGID_00000142863108342701599440000000643237308493528213_);" d="M1230.65,1556.87
			c0,0-272.69-153.31-276.93-154.4c-4.24-1.09-15.78-11.12-17.04-19.29c-2.52-9.75-71.37-121.37-71.37-121.37h84.58h51.56
			L1230.65,1556.87z"/>
		
			<linearGradient id="SVGID_00000026859594064351552190000001756954710926759821_" gradientUnits="userSpaceOnUse" x1="321.5684" y1="735.5298" x2="468.4613" y2="939.892">
			<stop  offset="0" style="stop-color:#63C8CD"/>
			<stop  offset="0.2693" style="stop-color:#4AC3CD"/>
			<stop  offset="0.279" style="stop-color:#4ABAC8"/>
			<stop  offset="0.3264" style="stop-color:#409CB7"/>
			<stop  offset="0.3756" style="stop-color:#3A84A9"/>
			<stop  offset="0.4261" style="stop-color:#36739E"/>
			<stop  offset="0.4781" style="stop-color:#336697"/>
			<stop  offset="0.5324" style="stop-color:#305D92"/>
			<stop  offset="0.5904" style="stop-color:#2F588F"/>
			<stop  offset="0.6586" style="stop-color:#2F568E"/>
		</linearGradient>
		<path style="fill:url(#SVGID_00000026859594064351552190000001756954710926759821_);" d="M278.84,762.74l216.75,133.11
			c0,0-97.47-139.48-102.56-147.21c-5.09-7.72-18.3-30.71-50.75-15.22C309.83,748.91,278.84,762.74,278.84,762.74z"/>
		
			<linearGradient id="SVGID_00000120545369589709715730000014345097721023316108_" gradientUnits="userSpaceOnUse" x1="843.3041" y1="848.9633" x2="908.1288" y2="657.9735">
			<stop  offset="0.1436" style="stop-color:#3F629D"/>
			<stop  offset="0.1566" style="stop-color:#3F66A0"/>
			<stop  offset="0.2203" style="stop-color:#4275B0"/>
			<stop  offset="0.2763" style="stop-color:#447FBB"/>
			<stop  offset="0.3185" style="stop-color:#4483BF"/>
			<stop  offset="0.4077" style="stop-color:#4584BF"/>
			<stop  offset="0.4629" style="stop-color:#4689C1"/>
			<stop  offset="0.5089" style="stop-color:#4992C4"/>
			<stop  offset="0.5498" style="stop-color:#4E9EC8"/>
			<stop  offset="0.5871" style="stop-color:#55AFCC"/>
			<stop  offset="0.6218" style="stop-color:#5DC4D1"/>
			<stop  offset="0.6244" style="stop-color:#5DC7D2"/>
		</linearGradient>
		<path style="fill:url(#SVGID_00000120545369589709715730000014345097721023316108_);" d="M821.08,777.67l-31.34,68.05h49.03
			c0,0,62.68-32.35,65.71-34.03s14.3-9.72,10.89-25.22s-23.88-129-23.88-129l-81.86,160.01L821.08,777.67z"/>
		
			<linearGradient id="SVGID_00000054977599865668363010000006737377909682379169_" gradientUnits="userSpaceOnUse" x1="914.5327" y1="801.103" x2="1205.5549" y2="495.3517">
			<stop  offset="0.0981" style="stop-color:#584573"/>
			<stop  offset="0.2129" style="stop-color:#885280"/>
			<stop  offset="0.3625" style="stop-color:#C86792"/>
			<stop  offset="0.4312" style="stop-color:#E6729C"/>
			<stop  offset="0.5827" style="stop-color:#EE939D"/>
			<stop  offset="0.7598" style="stop-color:#FAB69A"/>
			<stop  offset="0.8066" style="stop-color:#FABA9E"/>
			<stop  offset="0.8622" style="stop-color:#FAC5A8"/>
			<stop  offset="0.9222" style="stop-color:#FAD7BA"/>
			<stop  offset="0.985" style="stop-color:#FAF0D5"/>
			<stop  offset="1" style="stop-color:#FAF9DE"/>
		</linearGradient>
		<path style="fill:url(#SVGID_00000054977599865668363010000006737377909682379169_);" d="M933.38,631.57v299.48
			c96.38-170.93,199.82-332.28,312.15-481.56C1174.83,499.36,1058.57,564.01,933.38,631.57z"/>
		
			<linearGradient id="SVGID_00000078731668303882053040000007501079583179487110_" gradientUnits="userSpaceOnUse" x1="1178.4066" y1="713.8269" x2="1255.8928" y2="444.468">
			<stop  offset="0.1519" style="stop-color:#3F3E85"/>
			<stop  offset="0.3307" style="stop-color:#414C8E"/>
			<stop  offset="0.3733" style="stop-color:#425B97"/>
			<stop  offset="0.4535" style="stop-color:#4574A5"/>
			<stop  offset="0.5365" style="stop-color:#488AB3"/>
			<stop  offset="0.6211" style="stop-color:#4A9EBF"/>
			<stop  offset="0.7079" style="stop-color:#4CAEC9"/>
			<stop  offset="0.7976" style="stop-color:#4EBACF"/>
			<stop  offset="0.8923" style="stop-color:#4EC1D4"/>
			<stop  offset="1" style="stop-color:#4DC5D6"/>
		</linearGradient>
		<path style="fill:url(#SVGID_00000078731668303882053040000007501079583179487110_);" d="M1245.53,454.11l-33.17,294.53
			l-65.66-31.3c0,0-11.45-21.32,2.17-50.18C1162.49,638.28,1245.53,454.11,1245.53,454.11z"/>
		
			<linearGradient id="SVGID_00000178172896844612321530000016695067158467387040_" gradientUnits="userSpaceOnUse" x1="1115.2452" y1="833.463" x2="1106.3052" y2="746.726">
			<stop  offset="0.1389" style="stop-color:#653F69"/>
			<stop  offset="0.2148" style="stop-color:#69426C"/>
			<stop  offset="0.3121" style="stop-color:#754A75"/>
			<stop  offset="0.4209" style="stop-color:#8A5885"/>
			<stop  offset="0.5373" style="stop-color:#AA6D9F"/>
			<stop  offset="0.5886" style="stop-color:#BD7BB0"/>
			<stop  offset="0.7605" style="stop-color:#C37FB6"/>
		</linearGradient>
		<path style="fill:url(#SVGID_00000178172896844612321530000016695067158467387040_);" d="M1210.56,767.61
			c0,0-45.92-18.34-58.58-24.67c-17.1-8.54-24.55-15.26-47.67,11.41c-23.12,26.67-86.84,121.17-86.84,121.17L1210.56,767.61z"/>
		
			<linearGradient id="SVGID_00000070806774824195329940000013129557163719456160_" gradientUnits="userSpaceOnUse" x1="694.8172" y1="1265.1106" x2="694.8172" y2="1357.8951">
			<stop  offset="0" style="stop-color:#181A37"/>
			<stop  offset="0.2549" style="stop-color:#2A5164"/>
			<stop  offset="0.4788" style="stop-color:#328595"/>
			<stop  offset="0.6387" style="stop-color:#32AAB7"/>
			<stop  offset="0.7196" style="stop-color:#30BCC9"/>
			<stop  offset="0.9868" style="stop-color:#36BBC7"/>
		</linearGradient>
		<polygon style="fill:url(#SVGID_00000070806774824195329940000013129557163719456160_);" points="728.95,1361.5 660.69,1361.5 
			660.69,1270.57 728.82,1270.57 		"/>
		<g>
			<g>
				<path class="st32" d="M206.42,1073.41V860.17h60.17c59.9,0,104.96,27.66,104.96,105.47c0,80.11-45.86,107.77-104.96,107.77
					H206.42z M249.36,1035.37h20.14c42.67,0,58.84-20.75,58.84-69.16c0-45.53-16.43-66.85-59.37-66.85h-19.62V1035.37z"/>
				<path class="st32" d="M376.33,1073.41l69.45-214.1h41.08l69.45,214.1h-43.74L498,1025.87h-66.8l-15.11,47.55H376.33z
					 M441.8,991.86h46.12l-22.53-72.62h-0.53L441.8,991.86z"/>
				<path class="st32" d="M580.96,1073.41V860.17h73.69c48.24,0,77.13,18.73,77.13,65.99c0,33.71-14.58,52.16-40.82,60.8
					l43.74,86.45h-45.59l-40.82-80.4h-24.92v80.4H580.96z M623.37,956.71h29.42c24.92,0,36.84-7.78,36.84-29.39
					c0-21.04-11.93-28.82-36.84-28.82h-29.42V956.71z"/>
				<path class="st32" d="M767.83,1073.41V860.17h43.21v88.18l65.73-88.18h50.36l-66.53,83.28l73.42,129.96h-48.77l-52.75-94.52
					l-21.47,26.22v68.29H767.83z"/>
				<path class="st32" d="M958.15,1073.41V860.17h133.59v39.19h-90.39v45.82h65.47v37.17h-65.47v53.02h95.16v38.04H958.15z"/>
				<path class="st32" d="M1125.93,1073.41V860.17h73.69c48.24,0,77.13,18.73,77.13,65.99c0,33.71-14.58,52.16-40.82,60.8
					l43.74,86.45h-45.59l-40.82-80.4h-24.92v80.4H1125.93z M1168.34,956.71h29.42c24.92,0,36.84-7.78,36.84-29.39
					c0-21.04-11.93-28.82-36.84-28.82h-29.42V956.71z"/>
			</g>
			<g>
				<path class="st33" d="M206.42,1073.41V860.17h60.17c59.9,0,104.96,27.66,104.96,105.47c0,80.11-45.86,107.77-104.96,107.77
					H206.42z M249.36,1035.37h20.14c42.67,0,58.84-20.75,58.84-69.16c0-45.53-16.43-66.85-59.37-66.85h-19.62V1035.37z"/>
				<path class="st33" d="M376.33,1073.41l69.45-214.1h41.08l69.45,214.1h-43.74L498,1025.87h-66.8l-15.11,47.55H376.33z
					 M441.8,991.86h46.12l-22.53-72.62h-0.53L441.8,991.86z"/>
				<path class="st33" d="M580.96,1073.41V860.17h73.69c48.24,0,77.13,18.73,77.13,65.99c0,33.71-14.58,52.16-40.82,60.8
					l43.74,86.45h-45.59l-40.82-80.4h-24.92v80.4H580.96z M623.37,956.71h29.42c24.92,0,36.84-7.78,36.84-29.39
					c0-21.04-11.93-28.82-36.84-28.82h-29.42V956.71z"/>
				<path class="st33" d="M767.83,1073.41V860.17h43.21v88.18l65.73-88.18h50.36l-66.53,83.28l73.42,129.96h-48.77l-52.75-94.52
					l-21.47,26.22v68.29H767.83z"/>
				<path class="st33" d="M958.15,1073.41V860.17h133.59v39.19h-90.39v45.82h65.47v37.17h-65.47v53.02h95.16v38.04H958.15z"/>
				<path class="st33" d="M1125.93,1073.41V860.17h73.69c48.24,0,77.13,18.73,77.13,65.99c0,33.71-14.58,52.16-40.82,60.8
					l43.74,86.45h-45.59l-40.82-80.4h-24.92v80.4H1125.93z M1168.34,956.71h29.42c24.92,0,36.84-7.78,36.84-29.39
					c0-21.04-11.93-28.82-36.84-28.82h-29.42V956.71z"/>
			</g>
			<g>
				<path class="st34" d="M206.42,1073.41V860.17h60.17c59.9,0,104.96,27.66,104.96,105.47c0,80.11-45.86,107.77-104.96,107.77
					H206.42z M249.36,1035.37h20.14c42.67,0,58.84-20.75,58.84-69.16c0-45.53-16.43-66.85-59.37-66.85h-19.62V1035.37z"/>
				<path class="st34" d="M376.33,1073.41l69.45-214.1h41.08l69.45,214.1h-43.74L498,1025.87h-66.8l-15.11,47.55H376.33z
					 M441.8,991.86h46.12l-22.53-72.62h-0.53L441.8,991.86z"/>
				<path class="st34" d="M580.96,1073.41V860.17h73.69c48.24,0,77.13,18.73,77.13,65.99c0,33.71-14.58,52.16-40.82,60.8
					l43.74,86.45h-45.59l-40.82-80.4h-24.92v80.4H580.96z M623.37,956.71h29.42c24.92,0,36.84-7.78,36.84-29.39
					c0-21.04-11.93-28.82-36.84-28.82h-29.42V956.71z"/>
				<path class="st34" d="M767.83,1073.41V860.17h43.21v88.18l65.73-88.18h50.36l-66.53,83.28l73.42,129.96h-48.77l-52.75-94.52
					l-21.47,26.22v68.29H767.83z"/>
				<path class="st34" d="M958.15,1073.41V860.17h133.59v39.19h-90.39v45.82h65.47v37.17h-65.47v53.02h95.16v38.04H958.15z"/>
				<path class="st34" d="M1125.93,1073.41V860.17h73.69c48.24,0,77.13,18.73,77.13,65.99c0,33.71-14.58,52.16-40.82,60.8
					l43.74,86.45h-45.59l-40.82-80.4h-24.92v80.4H1125.93z M1168.34,956.71h29.42c24.92,0,36.84-7.78,36.84-29.39
					c0-21.04-11.93-28.82-36.84-28.82h-29.42V956.71z"/>
			</g>
			<g>
				<path class="st35" d="M206.42,1073.41V860.17h60.17c59.9,0,104.96,27.66,104.96,105.47c0,80.11-45.86,107.77-104.96,107.77
					H206.42z M249.36,1035.37h20.14c42.67,0,58.84-20.75,58.84-69.16c0-45.53-16.43-66.85-59.37-66.85h-19.62V1035.37z"/>
				<path class="st35" d="M376.33,1073.41l69.45-214.1h41.08l69.45,214.1h-43.74L498,1025.87h-66.8l-15.11,47.55H376.33z
					 M441.8,991.86h46.12l-22.53-72.62h-0.53L441.8,991.86z"/>
				<path class="st35" d="M580.96,1073.41V860.17h73.69c48.24,0,77.13,18.73,77.13,65.99c0,33.71-14.58,52.16-40.82,60.8
					l43.74,86.45h-45.59l-40.82-80.4h-24.92v80.4H580.96z M623.37,956.71h29.42c24.92,0,36.84-7.78,36.84-29.39
					c0-21.04-11.93-28.82-36.84-28.82h-29.42V956.71z"/>
				<path class="st35" d="M767.83,1073.41V860.17h43.21v88.18l65.73-88.18h50.36l-66.53,83.28l73.42,129.96h-48.77l-52.75-94.52
					l-21.47,26.22v68.29H767.83z"/>
				<path class="st35" d="M958.15,1073.41V860.17h133.59v39.19h-90.39v45.82h65.47v37.17h-65.47v53.02h95.16v38.04H958.15z"/>
				<path class="st35" d="M1125.93,1073.41V860.17h73.69c48.24,0,77.13,18.73,77.13,65.99c0,33.71-14.58,52.16-40.82,60.8
					l43.74,86.45h-45.59l-40.82-80.4h-24.92v80.4H1125.93z M1168.34,956.71h29.42c24.92,0,36.84-7.78,36.84-29.39
					c0-21.04-11.93-28.82-36.84-28.82h-29.42V956.71z"/>
			</g>
		</g>
		<g>
			<g>
				<path class="st36" d="M207.62,1293.29v-186.82h56.99l43.73,137.34h0.53l40.82-137.34H408v186.82h-41.61V1165.8h-0.53
					c-2.92,16.16-6.63,28.02-10.87,41.66l-29.42,85.83H287.4l-29.16-85.83c-4.51-14.14-7.16-22.22-11.4-43.68h-0.53v129.51H207.62z"
					/>
				<path class="st36" d="M432.65,1293.29l69.45-187.58h41.08l69.45,187.58H568.9l-14.58-41.66h-66.8l-15.11,41.66H432.65z
					 M498.13,1221.85h46.12l-22.53-63.62h-0.53L498.13,1221.85z"/>
				<path class="st36" d="M657.43,1293.29v-152.48h-58.31v-34.33h160.1v34.33h-58.58v152.48H657.43z"/>
				<path class="st36" d="M829.19,1293.29v-152.48h-58.31v-34.33h160.1v34.33H872.4v152.48H829.19z"/>
				<path class="st36" d="M1109.9,1293.29v-186.82h73.69c48.24,0,77.13,16.41,77.13,57.81c0,29.54-14.58,45.69-40.82,53.27
					l43.74,75.74h-45.59l-40.82-70.44h-24.92v70.44H1109.9z M1152.31,1191.05h29.42c24.92,0,36.84-6.82,36.84-25.75
					c0-18.43-11.93-25.25-36.84-25.25h-29.42V1191.05z"/>
			</g>
			<g>
				<path class="st37" d="M207.62,1293.29v-186.82h56.99l43.73,137.34h0.53l40.82-137.34H408v186.82h-41.61V1165.8h-0.53
					c-2.92,16.16-6.63,28.02-10.87,41.66l-29.42,85.83H287.4l-29.16-85.83c-4.51-14.14-7.16-22.22-11.4-43.68h-0.53v129.51H207.62z"
					/>
				<path class="st37" d="M432.65,1293.29l69.45-187.58h41.08l69.45,187.58H568.9l-14.58-41.66h-66.8l-15.11,41.66H432.65z
					 M498.13,1221.85h46.12l-22.53-63.62h-0.53L498.13,1221.85z"/>
				<path class="st37" d="M657.43,1293.29v-152.48h-58.31v-34.33h160.1v34.33h-58.58v152.48H657.43z"/>
				<path class="st37" d="M829.19,1293.29v-152.48h-58.31v-34.33h160.1v34.33H872.4v152.48H829.19z"/>
				<path class="st37" d="M1109.9,1293.29v-186.82h73.69c48.24,0,77.13,16.41,77.13,57.81c0,29.54-14.58,45.69-40.82,53.27
					l43.74,75.74h-45.59l-40.82-70.44h-24.92v70.44H1109.9z M1152.31,1191.05h29.42c24.92,0,36.84-6.82,36.84-25.75
					c0-18.43-11.93-25.25-36.84-25.25h-29.42V1191.05z"/>
			</g>
			<g>
				<path class="st34" d="M207.62,1293.29v-186.82h56.99l43.73,137.34h0.53l40.82-137.34H408v186.82h-41.61V1165.8h-0.53
					c-2.92,16.16-6.63,28.02-10.87,41.66l-29.42,85.83H287.4l-29.16-85.83c-4.51-14.14-7.16-22.22-11.4-43.68h-0.53v129.51H207.62z"
					/>
				<path class="st34" d="M432.65,1293.29l69.45-187.58h41.08l69.45,187.58H568.9l-14.58-41.66h-66.8l-15.11,41.66H432.65z
					 M498.13,1221.85h46.12l-22.53-63.62h-0.53L498.13,1221.85z"/>
				<path class="st34" d="M657.43,1293.29v-152.48h-58.31v-34.33h160.1v34.33h-58.58v152.48H657.43z"/>
				<path class="st34" d="M829.19,1293.29v-152.48h-58.31v-34.33h160.1v34.33H872.4v152.48H829.19z"/>
				<path class="st34" d="M1109.9,1293.29v-186.82h73.69c48.24,0,77.13,16.41,77.13,57.81c0,29.54-14.58,45.69-40.82,53.27
					l43.74,75.74h-45.59l-40.82-70.44h-24.92v70.44H1109.9z M1152.31,1191.05h29.42c24.92,0,36.84-6.82,36.84-25.75
					c0-18.43-11.93-25.25-36.84-25.25h-29.42V1191.05z"/>
			</g>
			<g>
				<path class="st35" d="M207.62,1293.29v-186.82h56.99l43.73,137.34h0.53l40.82-137.34H408v186.82h-41.61V1165.8h-0.53
					c-2.92,16.16-6.63,28.02-10.87,41.66l-29.42,85.83H287.4l-29.16-85.83c-4.51-14.14-7.16-22.22-11.4-43.68h-0.53v129.51H207.62z"
					/>
				<path class="st35" d="M432.65,1293.29l69.45-187.58h41.08l69.45,187.58H568.9l-14.58-41.66h-66.8l-15.11,41.66H432.65z
					 M498.13,1221.85h46.12l-22.53-63.62h-0.53L498.13,1221.85z"/>
				<path class="st35" d="M657.43,1293.29v-152.48h-58.31v-34.33h160.1v34.33h-58.58v152.48H657.43z"/>
				<path class="st35" d="M829.19,1293.29v-152.48h-58.31v-34.33h160.1v34.33H872.4v152.48H829.19z"/>
				<path class="st35" d="M1109.9,1293.29v-186.82h73.69c48.24,0,77.13,16.41,77.13,57.81c0,29.54-14.58,45.69-40.82,53.27
					l43.74,75.74h-45.59l-40.82-70.44h-24.92v70.44H1109.9z M1152.31,1191.05h29.42c24.92,0,36.84-6.82,36.84-25.75
					c0-18.43-11.93-25.25-36.84-25.25h-29.42V1191.05z"/>
			</g>
		</g>
		<g>
			<g>
				<path class="st36" d="M968.65,1143.69v-37.98h111.85v37.98H968.65z"/>
			</g>
			<g>
				<path class="st37" d="M968.65,1143.69v-37.98h111.85v37.98H968.65z"/>
			</g>
			<g>
				<path class="st34" d="M968.65,1143.69v-37.98h111.85v37.98H968.65z"/>
			</g>
			<g>
				<path class="st38" d="M968.65,1143.69v-37.98h111.85v37.98H968.65z"/>
			</g>
		</g>
		<g>
			<g>
				<path class="st36" d="M968.65,1214.65v-37.98h111.85v37.98H968.65z"/>
			</g>
			<g>
				<path class="st37" d="M968.65,1214.65v-37.98h111.85v37.98H968.65z"/>
			</g>
			<g>
				<path class="st34" d="M968.65,1214.65v-37.98h111.85v37.98H968.65z"/>
			</g>
			<g>
				<path class="st38" d="M968.65,1214.65v-37.98h111.85v37.98H968.65z"/>
			</g>
		</g>
		<g>
			<g>
				<path class="st36" d="M968.65,1285.6v-37.98h111.85v37.98H968.65z"/>
			</g>
			<g>
				<path class="st37" d="M968.65,1285.6v-37.98h111.85v37.98H968.65z"/>
			</g>
			<g>
				<path class="st34" d="M968.65,1285.6v-37.98h111.85v37.98H968.65z"/>
			</g>
			<g>
				<path class="st38" d="M968.65,1285.6v-37.98h111.85v37.98H968.65z"/>
			</g>
		</g>
	</g>
</g>
<g>
</g>
<g>
</g>
<g>
</g>
<g>
</g>
<g>
</g>
<g>
</g>
</svg>
